<svg width="25" height="24" viewBox="0 0 25 24" fill="none" xmlns="http://www.w3.org/2000/svg">
<path d="M4.5 7.9966C4.33599 7.99236 4.2169 7.98287 4.10982 7.96157C3.31644 7.80376 2.69624 7.18356 2.53843 6.39018C2.5 6.19698 2.5 5.96466 2.5 5.5C2.5 5.03534 2.5 4.80302 2.53843 4.60982C2.69624 3.81644 3.31644 3.19624 4.10982 3.03843C4.30302 3 4.53534 3 5 3H20C20.4647 3 20.697 3 20.8902 3.03843C21.6836 3.19624 22.3038 3.81644 22.4616 4.60982C22.5 4.80302 22.5 5.03534 22.5 5.5C22.5 5.96466 22.5 6.19698 22.4616 6.39018C22.3038 7.18356 21.6836 7.80376 20.8902 7.96157C20.7831 7.98287 20.664 7.99236 20.5 7.9966M10.5 13H14.5M4.5 8H20.5V16.2C20.5 17.8802 20.5 18.7202 20.173 19.362C19.8854 19.9265 19.4265 20.3854 18.862 20.673C18.2202 21 17.3802 21 15.7 21H9.3C7.61984 21 6.77976 21 6.13803 20.673C5.57354 20.3854 5.1146 19.9265 4.82698 19.362C4.5 18.7202 4.5 17.8802 4.5 16.2V8Z" stroke="#4B4B4B" stroke-width="2" stroke-linecap="round" stroke-linejoin="round"/>
</svg>
